<svg width="35" height="35" viewBox="0 0 35 35" fill="none" xmlns="http://www.w3.org/2000/svg">
<path fill-rule="evenodd" clip-rule="evenodd" d="M7.24139 32.0813L5 6.94434H29.6278L27.3839 32.0777L17.2986 34.8729L7.24139 32.0813ZM23.5722 27.0499L24.225 20.9688L24.9708 12.5927L25.045 11.6666H9.60139L9.675 12.6057L9.81556 14.2807L9.8775 14.9999H21.6756L21.3939 18.0554H13.6478L13.7214 18.8882L13.8619 20.4568L13.9236 21.111H21.12L20.7567 25.1524L17.3139 26.1232V26.1276L13.8853 25.2127L13.6658 22.7777H10.5711L10.9981 27.5946L17.3089 29.3238L17.3139 29.3196V29.3193L23.5747 27.5707L23.5722 27.0499Z" fill="#909299"/>
<path fill-rule="evenodd" clip-rule="evenodd" d="M11.7585 3.33333H13.9807V4.72222H10.0918V0H13.9807V1.38889H11.7585V3.33333ZM18.9807 3.715L17.0899 1.38889H18.9807V0H14.814V1.21194L16.9621 3.33333H14.814V4.72222H18.9807V3.715ZM24.2585 3.715L22.2726 1.38889H24.2585V0H19.814V1.21194L22.1446 3.33333H19.814V4.72222H24.2585V3.715Z" fill="#909299"/>
</svg>
