<svg width="35" height="35" viewBox="0 0 35 35" fill="none" xmlns="http://www.w3.org/2000/svg">
<path d="M34.8249 26.6775C33.5582 26.9997 32.7749 26.6914 32.0721 25.6358C30.4943 23.2719 28.7527 21.0164 27.0721 18.7192C26.8555 18.4219 26.6305 18.1303 26.3499 17.7608C24.361 20.4442 22.3749 22.9997 20.511 25.658C19.8443 26.608 19.1443 27.0219 17.8999 26.6858L25.3777 16.6497L18.4166 7.58582C19.6138 7.35248 20.4416 7.47193 21.1749 8.54415C22.7943 10.9108 24.5805 13.1636 26.361 15.5469C28.1527 13.1719 29.9166 10.9164 31.5832 8.57193C32.2527 7.62193 32.9721 7.26082 34.1749 7.61082C33.2638 8.81915 32.3721 10.008 31.4749 11.1886C30.2638 12.7803 29.0749 14.3914 27.8193 15.9497C27.3721 16.5053 27.4443 16.8664 27.8443 17.3914C30.1666 20.4442 32.461 23.5275 34.8249 26.6775Z" fill="#909299"/>
<path fill-rule="evenodd" clip-rule="evenodd" d="M0.18495 15.5266C0.128294 15.8462 0.0716551 16.1656 0.00833333 16.4831C0.00833333 17.046 0.00555556 17.609 0 18.172C0.0203439 18.2728 0.0424984 18.3735 0.0646482 18.474C0.115083 18.7031 0.165493 18.932 0.194444 19.1636C0.472222 21.2553 1.1 23.1914 2.57778 24.747C5.08056 27.3942 9.83889 28.0109 13.1722 26.1053C15.3944 24.8331 16.4583 22.7997 16.9278 20.3664C16.0111 20.0886 15.5194 20.2414 15.2222 21.2164C14.6361 23.1609 13.4667 24.7164 11.4806 25.3831C5.81944 27.2831 1.37778 23.5581 1.61111 17.3886H17.1111C17.2472 13.9497 16.5639 10.8997 13.8139 8.73586C9.11944 5.04697 2.28611 7.52197 0.619444 13.4747C0.429614 14.1467 0.307242 14.8369 0.18495 15.5266ZM15.6472 16.0692H1.63889C1.81944 11.472 4.81389 8.37752 8.98056 8.41086C12.7778 8.43863 15.5556 11.6081 15.6472 16.0692Z" fill="#909299"/>
</svg>
