<svg width="35" height="35" viewBox="0 0 35 35" fill="none" xmlns="http://www.w3.org/2000/svg">
<path fill-rule="evenodd" clip-rule="evenodd" d="M7.34885 0H8.92334V1.556H10.364V0H11.9387V4.71114H10.364V3.13357H8.92362V4.71114H7.34885V0ZM7.26483 32.2885L5 7.10592H29.8865L27.6192 32.3397L17.4279 35L7.26483 32.2885ZM25.0337 14.4729L25.1757 12.839L25.2502 12.147H9.64421L9.71898 13.0331L10.4847 21.6689H21.2823L20.9194 25.5136L17.4433 26.2555V26.2521L17.4416 26.3176L13.9731 25.4385L13.7515 23.0692H10.6238L11.0568 27.8456L17.4357 29.5025L17.4433 29.4991V29.5005L23.8258 27.7826L23.8796 27.3093L24.6119 19.2131L24.6878 18.5883H13.3343L13.0494 15.2276H24.9712L25.0337 14.4729ZM12.6229 1.56245H14.0092V4.71114H15.584V1.56245H16.9708V0H12.6229V1.56245ZM17.6609 0H19.3026L20.3127 1.65542L21.3218 0H22.9643V4.71114H21.3957V2.37601L20.3127 4.05104H20.2853L19.2015 2.37601V4.71114H17.6606V0H17.6609ZM25.3233 0H23.7482V4.71142H27.5377V3.15402H25.3233V0Z" fill="#909299"/>
</svg>
