<svg width="35" height="35" viewBox="0 0 35 35" fill="none" xmlns="http://www.w3.org/2000/svg">
<path fill-rule="evenodd" clip-rule="evenodd" d="M0 0V35H35V0H0ZM18.5133 29.8236C17.9967 30.8734 17.0106 31.563 15.8679 31.8959C14.112 32.2991 12.4326 32.0692 11.1832 31.3194C10.3471 30.8064 9.69416 30.0168 9.25092 29.1071L11.9165 27.4747C11.9372 27.4834 11.995 27.5847 12.0734 27.7222L12.1033 27.7746C12.4432 28.3441 12.7364 28.7473 13.3126 29.0304C13.8788 29.2236 15.1217 29.3471 15.6016 28.3508C15.8354 27.9467 15.8234 26.8289 15.809 25.4786V25.4786C15.8053 25.1356 15.8015 24.7777 15.8015 24.4126C15.8014 22.9776 15.8047 21.5457 15.808 20.1178C15.8112 18.7276 15.8144 17.3413 15.8144 15.96H19.0929C19.0929 16.9953 19.0948 18.0122 19.0967 19.0202V19.0211C19.1004 21.0116 19.1041 22.9676 19.0929 24.9626C19.094 25.2344 19.0983 25.5019 19.1026 25.7649C19.1274 27.2839 19.1497 28.6505 18.5133 29.8236ZM22.0816 30.3467C24.6207 32.9221 30.9744 32.7956 32.114 28.8974C32.1608 28.7641 32.4674 27.8712 32.2204 26.4947C31.964 24.8959 30.921 23.5528 27.8323 22.3C27.6279 22.2061 27.4191 22.1173 27.2125 22.0294C26.3342 21.6557 25.4953 21.2988 25.2067 20.6408C25.0799 20.1676 25.0634 19.901 25.1432 19.6146C25.3733 18.685 26.4827 18.3952 27.3624 18.6617C27.9292 18.8516 28.4654 19.2884 28.7885 19.9844C29.9934 19.2043 30.2365 19.0497 30.8192 18.6789C30.9681 18.5842 31.1392 18.4753 31.3541 18.3383C30.9677 17.7388 30.7611 17.4622 30.508 17.2057C29.5982 16.1899 28.359 15.6663 26.3763 15.7063L25.3436 15.8399C24.3541 16.0896 23.4111 16.6093 22.8581 17.3057C21.1988 19.1884 21.672 22.4834 23.6911 23.8395C24.527 24.467 25.5279 24.8908 26.4351 25.2749C27.6862 25.8046 28.7592 26.2589 28.9755 27.0682C29.3387 28.7776 27.7194 29.3306 26.11 29.134C24.9236 28.8873 24.2642 28.2845 23.5511 27.1883C22.9031 27.5632 22.5749 27.7531 22.2465 27.9425C21.9095 28.137 21.5722 28.331 20.8888 28.7241C21.1631 29.3238 21.4494 29.6422 21.8634 30.1026C21.9324 30.1794 22.005 30.2601 22.0816 30.3467Z" fill="#909299"/>
</svg>
