<svg width="35" height="35" viewBox="0 0 35 35" fill="none" xmlns="http://www.w3.org/2000/svg">
<path fill-rule="evenodd" clip-rule="evenodd" d="M18.7928 0.34082L31.4568 7.68652C32.2805 8.16246 32.6967 9.05037 32.697 10.0025V24.6744C32.697 25.6266 32.2807 26.5136 31.4571 26.9933L18.841 34.3324C18.4345 34.5677 17.9735 34.6899 17.5024 34.6899C17.0377 34.6899 16.5755 34.5677 16.1693 34.3324L11.9239 31.821C11.2908 31.4661 11.5983 31.3402 11.8069 31.2676C12.6532 30.9741 12.8207 30.9061 13.723 30.3946C13.8171 30.3421 13.935 30.3625 14.0328 30.4193L17.2795 32.3555C17.3986 32.4206 17.5397 32.4206 17.6482 32.3555L30.3093 25.0181C30.4097 24.9612 30.4066 24.8553 30.4032 24.7394C30.4026 24.718 30.4019 24.6963 30.4019 24.6744V10.0025C30.4019 9.98511 30.4022 9.9678 30.4025 9.95071C30.4045 9.82799 30.4064 9.71654 30.3004 9.65283L17.688 2.32148C17.5695 2.25406 17.4011 2.25406 17.2821 2.32148L4.5507 9.65455C4.42791 9.72541 4.29508 9.86426 4.29508 10.0025V24.6744C4.29508 24.8144 4.36795 24.9473 4.48902 25.0132L7.96664 27.0252C9.85607 27.9699 10.8934 26.8576 10.8934 25.7399V11.2551C10.8934 11.0508 11.298 10.7464 11.5022 10.7464H13.1151C13.259 10.7464 13.2346 10.9023 13.2089 11.0659C13.1987 11.1309 13.1883 11.1972 13.1882 11.2554V25.7402C13.1882 28.2616 11.9466 29.7073 9.5557 29.7073C8.82127 29.7073 8.37402 29.7073 6.75971 28.912L3.39484 26.9933C2.57148 26.5171 2 25.6266 2 24.6744V10.0025C2 9.05037 2.55971 8.16016 3.38279 7.68652L16.1457 0.34082C16.9499 -0.113607 17.995 -0.113607 18.7928 0.34082ZM17.0778 19.7486C17.3248 21.4214 18.0656 22.3495 21.4299 22.3495C24.1065 22.3495 25.2477 21.7439 25.2477 20.3221C25.2477 19.5036 24.9241 18.8954 20.7629 18.4875C17.2844 18.1435 15.1336 17.3746 15.1336 14.5924C15.1336 12.0274 17.295 10.4971 20.9189 10.4971C24.9924 10.4971 27.0064 11.91 27.2625 14.9421C27.2714 15.0471 27.2353 15.145 27.1661 15.223C27.095 15.2956 26.9983 15.3366 26.8968 15.3366H25.246C25.0753 15.3366 24.9241 15.2178 24.89 15.0523C24.4938 13.2917 23.531 12.7311 20.9192 12.7311C17.9959 12.7311 17.6562 13.7481 17.6562 14.5107C17.6562 15.4356 18.0573 15.6992 22.0054 16.2211C25.9113 16.738 27.7666 17.4587 27.7666 20.2048C27.7666 22.9743 25.4572 24.5393 21.4299 24.5393C15.866 24.5393 14.7013 21.9441 14.7013 19.8023C14.7013 19.5997 14.8651 19.353 15.0685 19.353H16.7123C16.8959 19.353 17.0486 19.5684 17.0778 19.7486Z" fill="#909299"/>
</svg>
