<svg width="60" height="59" viewBox="0 0 60 59" fill="none" xmlns="http://www.w3.org/2000/svg">
<path d="M48.7792 24.1937C48.6882 22.1688 48.8702 20.4201 48.0512 18.8554C45.8672 15.0817 40.4072 12.8727 29.3962 12.8727C18.6582 12.8727 12.7432 15.0817 10.6502 18.8554C9.7402 20.4201 9.9222 22.1688 9.7402 24.1937C9.6492 25.7584 8.9212 27.5072 9.1942 29.348C9.5582 31.741 9.7402 34.134 10.1042 36.343C10.3772 38.1838 12.7432 39.6564 13.0162 41.4052C13.6532 46.0992 18.2942 48.2162 29.3962 48.2162C40.5892 48.2162 44.9572 46.0992 45.5942 41.4052C45.8672 39.6564 48.1422 38.1838 48.4152 36.343C48.7792 34.134 48.9612 31.741 49.3252 29.348C49.5982 27.5072 48.8702 25.7584 48.7792 24.1937Z" fill="white"/>
<path d="M29.3962 12.8727C40.4072 12.8727 45.8672 15.0817 48.0512 18.8554C48.8702 20.4201 48.6882 22.1688 48.7792 24.1937C48.8702 25.7584 49.5982 27.5072 49.3252 29.348C48.9612 31.741 48.7792 34.134 48.4152 36.343C48.1422 38.1838 45.8672 39.6564 45.5942 41.4052C44.9572 46.0992 40.5892 48.2162 29.3962 48.2162C18.2942 48.2162 13.6532 46.0992 13.0162 41.4052C12.7432 39.6564 10.3772 38.1838 10.1042 36.343C9.7402 34.134 9.5582 31.741 9.1942 29.348C8.9212 27.5072 9.6492 25.7584 9.7402 24.1937C9.9222 22.1688 9.7402 20.4201 10.6502 18.8554C12.7432 15.0817 18.6582 12.8727 29.3962 12.8727ZM29.3962 12.8727V12.9648" stroke="#909299"/>
<path d="M41.8637 31.5569C44.0751 31.5569 45.8677 29.7437 45.8677 27.5071C45.8677 25.2705 44.0751 23.4574 41.8637 23.4574C39.6524 23.4574 37.8597 25.2705 37.8597 27.5071C37.8597 29.7437 39.6524 31.5569 41.8637 31.5569Z" fill="#909299"/>
<path d="M40.8627 26.6786C41.4155 26.6786 41.8637 26.2253 41.8637 25.6662C41.8637 25.107 41.4155 24.6537 40.8627 24.6537C40.3099 24.6537 39.8617 25.107 39.8617 25.6662C39.8617 26.2253 40.3099 26.6786 40.8627 26.6786Z" fill="white"/>
<path d="M35.7664 27.3229C37.8594 28.7035 39.6794 30.3602 41.3174 32.2931C43.3194 34.7781 43.2284 35.2383 43.2284 35.2383L41.8634 35.7906C41.8634 35.7906 39.8614 32.0169 37.4044 30.5443C34.9474 29.0717 34.5834 27.8751 34.5834 27.8751L35.7664 27.3229Z" fill="white" fill-opacity="0.01"/>
<path d="M39.9523 33.6738C37.4043 30.3604 33.4913 28.4275 29.3963 28.4275H29.3053C25.2103 28.4275 21.2973 30.3604 18.7493 33.6738C16.4743 36.435 16.6563 37.6315 16.6563 40.3007C16.6563 49.9649 20.0233 47.1117 22.2073 48.3082C24.3913 49.5047 26.8483 48.9525 29.3053 48.9525C31.7623 48.9525 34.1283 49.4127 36.4033 48.2162C38.6783 47.0196 42.0453 49.9649 42.0453 40.3007C42.1363 37.5395 42.2273 36.435 39.9523 33.6738Z" fill="#909299"/>
<path d="M29.4874 30.7284C29.4874 30.5443 31.0344 30.5443 31.8534 29.9C31.8534 29.9 30.1244 30.4523 29.7604 30.2682C29.3964 30.0841 29.3054 29.5319 29.3054 29.5319C29.3054 29.5319 29.2144 30.0841 28.8504 30.2682C28.1224 30.2682 27.3034 30.1761 26.5754 29.9C27.4854 30.0841 28.3044 30.3602 29.1234 30.7284C29.1234 30.9125 29.1234 31.2806 29.1234 31.6488C29.1234 33.0294 29.1234 34.502 29.3054 35.8826C29.5784 36.3428 29.4874 32.8453 29.4874 31.6488C29.4874 31.3727 29.4874 31.0045 29.4874 30.7284Z" fill="white"/>
<path d="M29.3962 36.1589C30.5792 36.1589 34.4012 38.8281 34.4922 42.1415C34.4922 42.0495 34.4922 42.0495 34.4922 41.9574C34.4922 38.5519 31.3982 35.7907 29.3962 35.7907C27.3942 35.7907 24.3002 38.5519 24.3002 41.9574C24.3002 42.0495 24.3002 42.0495 24.3002 42.1415C24.3912 38.736 28.2132 36.1589 29.3962 36.1589Z" fill="white"/>
<path d="M16.8385 31.5569C19.0498 31.5569 20.8425 29.7437 20.8425 27.5071C20.8425 25.2705 19.0498 23.4574 16.8385 23.4574C14.6271 23.4574 12.8345 25.2705 12.8345 27.5071C12.8345 29.7437 14.6271 31.5569 16.8385 31.5569Z" fill="#909299"/>
<path d="M17.8394 26.6786C18.3922 26.6786 18.8404 26.2253 18.8404 25.6662C18.8404 25.107 18.3922 24.6537 17.8394 24.6537C17.2865 24.6537 16.8384 25.107 16.8384 25.6662C16.8384 26.2253 17.2865 26.6786 17.8394 26.6786Z" fill="white"/>
<path d="M22.6622 27.3229C20.5692 28.7035 18.7492 30.3602 17.1112 32.2931C15.2002 34.7781 15.2002 35.2383 15.2002 35.2383L16.5652 35.8826C16.5652 35.8826 18.5672 32.109 21.0242 30.6363C23.4812 29.1637 23.8452 27.9672 23.8452 27.9672L22.6622 27.3229Z" fill="white" fill-opacity="0.01"/>
<path d="M40.5894 14.0693C40.5894 14.0693 45.8674 18.4872 47.4144 23.6415C48.9614 28.7957 48.3244 35.0544 49.5074 35.8828C51.1454 36.9873 53.1474 30.4524 53.7844 29.7161C54.7854 28.6116 58.1524 25.7584 58.3344 25.2982C58.5164 24.838 51.5094 17.1066 48.4154 15.6339C44.7754 13.7931 40.2254 13.7011 40.5894 14.0693Z" fill="#909299"/>
<path d="M17.6575 14.0693C17.6575 14.0693 12.3795 18.4872 10.9235 23.6415C9.46752 28.7957 10.0135 35.0544 8.83052 35.8828C7.10152 36.9873 5.19052 30.4524 4.55352 29.7161C3.55252 28.6116 0.185523 25.7584 0.00352336 25.2982C-0.178477 24.838 6.73752 17.1066 9.83152 15.6339C13.4715 13.7931 18.0215 13.7011 17.6575 14.0693Z" fill="#909299"/>
<path d="M24.6642 33.5816C24.8652 33.5816 25.0282 33.4168 25.0282 33.2135C25.0282 33.0102 24.8652 32.8453 24.6642 32.8453C24.4632 32.8453 24.3002 33.0102 24.3002 33.2135C24.3002 33.4168 24.4632 33.5816 24.6642 33.5816Z" fill="white"/>
<path d="M22.5718 35.7906C22.7728 35.7906 22.9358 35.6257 22.9358 35.4224C22.9358 35.2191 22.7728 35.0543 22.5718 35.0543C22.3708 35.0543 22.2078 35.2191 22.2078 35.4224C22.2078 35.6257 22.3708 35.7906 22.5718 35.7906Z" fill="white"/>
<path d="M21.9347 33.5816C22.1357 33.5816 22.2987 33.4168 22.2987 33.2135C22.2987 33.0102 22.1357 32.8453 21.9347 32.8453C21.7337 32.8453 21.5707 33.0102 21.5707 33.2135C21.5707 33.4168 21.7337 33.5816 21.9347 33.5816Z" fill="white"/>
<path d="M33.5826 33.5816C33.7836 33.5816 33.9466 33.4168 33.9466 33.2135C33.9466 33.0102 33.7836 32.8453 33.5826 32.8453C33.3815 32.8453 33.2186 33.0102 33.2186 33.2135C33.2186 33.4168 33.3815 33.5816 33.5826 33.5816Z" fill="white"/>
<path d="M35.6756 35.7906C35.8766 35.7906 36.0396 35.6257 36.0396 35.4224C36.0396 35.2191 35.8766 35.0543 35.6756 35.0543C35.4746 35.0543 35.3116 35.2191 35.3116 35.4224C35.3116 35.6257 35.4746 35.7906 35.6756 35.7906Z" fill="white"/>
<path d="M36.3129 33.5816C36.514 33.5816 36.6768 33.4168 36.6768 33.2135C36.6768 33.0102 36.514 32.8453 36.3129 32.8453C36.1119 32.8453 35.9489 33.0102 35.9489 33.2135C35.9489 33.4168 36.1119 33.5816 36.3129 33.5816Z" fill="white"/>
<path d="M25.6657 29.7159C25.2107 28.6115 26.8487 26.9547 29.3967 26.9547C31.9447 26.9547 33.6737 28.7035 33.1277 29.7159C32.5817 30.7284 31.0347 31.1886 29.3967 31.1886C27.7587 31.1886 26.1207 30.8204 25.6657 29.7159Z" fill="#909299"/>
<path d="M30.4009 29.7913C30.5955 29.7404 30.672 29.3801 30.5717 28.9864C30.4712 28.5926 30.232 28.3144 30.0374 28.3653C29.8427 28.4161 29.7664 28.7765 29.8667 29.1701C29.967 29.5639 30.2062 29.842 30.4009 29.7913Z" fill="white"/>
<path d="M28.6473 29.1281C28.7663 28.7397 28.7073 28.3761 28.5151 28.3158C28.3231 28.2556 28.0709 28.5216 27.9519 28.91C27.8328 29.2984 27.8919 29.6622 28.0839 29.7224C28.2759 29.7825 28.5281 29.5165 28.6473 29.1281Z" fill="white"/>
</svg>
