<svg width="35" height="35" viewBox="0 0 35 35" fill="none" xmlns="http://www.w3.org/2000/svg">
<path fill-rule="evenodd" clip-rule="evenodd" d="M29.4966 12.3336C28.8838 12.1107 28.2432 11.8879 27.5747 11.6929C27.7418 11.0245 27.8811 10.356 27.9925 9.71535C28.5774 6.03872 27.9368 3.44837 26.1542 2.44565C25.625 2.13927 25.0401 2 24.3716 2C22.4219 2 19.9429 3.44837 17.4361 5.8716C14.9293 3.44837 12.4504 2 10.5007 2C9.8322 2 9.24728 2.13927 8.71807 2.44565C6.93546 3.47622 6.29484 6.06658 6.87976 9.71535C6.99117 10.356 7.13043 11.0245 7.29755 11.6929C6.62908 11.8879 5.98845 12.0829 5.37568 12.3336C1.89402 13.6705 0 15.5088 0 17.57C0 19.6311 1.92188 21.4694 5.37568 22.8064C5.98845 23.0292 6.62908 23.252 7.29755 23.447C7.13043 24.1155 6.99117 24.784 6.87976 25.4246C6.29484 29.1012 6.93546 31.6916 8.71807 32.6943C9.24728 33.0007 9.8322 33.1399 10.5007 33.1399C12.4783 33.1399 14.9572 31.6916 17.4361 29.2683C19.9429 31.6916 22.4219 33.1399 24.3716 33.1399C25.0401 33.1399 25.625 33.0007 26.1542 32.6943C27.9368 31.6637 28.5774 29.0734 27.9925 25.4246C27.8811 24.784 27.7418 24.1155 27.5747 23.447C28.2432 23.252 28.8838 23.0571 29.4966 22.8064C32.9783 21.4694 34.8723 19.6311 34.8723 17.57C34.8723 15.5088 32.9783 13.6705 29.4966 12.3336ZM25.3743 3.83832C26.5163 4.50679 26.9062 6.56793 26.4327 9.49253C26.3492 10.0774 26.2099 10.6902 26.0428 11.3308C24.5944 10.9966 23.0625 10.7738 21.447 10.6345C20.5 9.29755 19.5251 8.09986 18.5503 7.01359C20.6114 4.9803 22.7004 3.58764 24.3995 3.58764C24.7615 3.58764 25.0958 3.6712 25.3743 3.83832ZM20.5557 23.0292C21.1685 22.1379 21.7534 21.2466 22.2548 20.3553C22.7839 19.4084 23.2574 18.4893 23.7309 17.5702L23.731 17.57C23.2853 16.6508 22.784 15.7038 22.2548 14.7846C21.7534 13.8933 21.1963 13.002 20.5836 12.1107C19.5808 12.0272 18.5503 11.9993 17.464 11.9993C16.4056 11.9993 15.375 12.0272 14.3444 12.1107C13.7317 13.002 13.1467 13.8933 12.6454 14.7846C12.1162 15.7038 11.6148 16.6508 11.1692 17.57C11.6148 18.4891 12.1162 19.4361 12.6454 20.3553C13.1467 21.2466 13.7038 22.1379 14.3166 23.0292C15.3193 23.1128 16.3499 23.1406 17.4361 23.1406C18.4946 23.1406 19.5251 23.1128 20.5557 23.0292ZM24.5666 19.4361C24.9844 20.411 25.3186 21.358 25.625 22.305C24.678 22.5279 23.6753 22.695 22.6168 22.8342L22.7403 22.6393C23.0386 22.1687 23.3506 21.6766 23.6196 21.163C23.8365 20.7833 24.0418 20.4036 24.2429 20.0316L24.243 20.0314C24.3516 19.8304 24.4591 19.6315 24.5666 19.4361ZM15.5143 24.6726C16.127 25.4803 16.7677 26.2602 17.4361 26.9844C18.1046 26.2602 18.7452 25.4803 19.358 24.6726C18.7174 24.7004 18.0768 24.7283 17.4361 24.7283C16.7955 24.7283 16.1549 24.7004 15.5143 24.6726ZM12.2554 22.8064C11.197 22.6671 10.1943 22.5 9.24728 22.2772C9.55367 21.358 9.88791 20.3832 10.3057 19.4083C10.3855 19.5533 10.4652 19.7002 10.5454 19.848L10.5455 19.848L10.5456 19.8482C10.7736 20.2681 11.0055 20.6954 11.2527 21.1073C11.5034 21.5669 11.7541 21.9795 12.0047 22.3921C12.0883 22.5296 12.1719 22.6671 12.2554 22.8064ZM9.24728 12.8349C9.55367 13.7819 9.88791 14.7289 10.3057 15.7038C10.4132 15.5084 10.5207 15.3095 10.6293 15.1085L10.6294 15.1083L10.6295 15.1083C10.8306 14.7362 11.0358 14.3566 11.2527 13.9769C11.5217 13.4634 11.8337 12.9713 12.132 12.5007L12.2554 12.3057C11.197 12.445 10.1943 12.6121 9.24728 12.8349ZM17.4361 8.15557C18.1046 8.87976 18.7452 9.65965 19.358 10.4674C18.7174 10.4395 18.0768 10.4117 17.4361 10.4117C16.7955 10.4117 16.1549 10.4395 15.5143 10.4674C16.127 9.65965 16.7677 8.87976 17.4361 8.15557ZM22.6168 12.3336L23.6196 14.0048C23.9538 14.5618 24.2602 15.1467 24.5666 15.7317C24.9844 14.7568 25.3186 13.7819 25.625 12.8628C24.678 12.6399 23.6753 12.4728 22.6168 12.3336ZM8.43954 9.49253C7.96603 6.56793 8.35598 4.50679 9.49796 3.83832C9.77649 3.6712 10.1107 3.58764 10.4728 3.58764C12.144 3.58764 14.233 4.95245 16.322 7.01359C15.3471 8.07201 14.3723 9.29755 13.4253 10.6345C11.8098 10.7738 10.2779 11.0245 8.82948 11.3308C8.67821 10.751 8.57258 10.1939 8.47127 9.65965L8.43954 9.49253ZM5.93274 13.8376C3.14742 14.8682 1.55978 16.2609 1.55978 17.57C1.55978 19.1298 3.8716 20.801 7.71535 21.9151C8.13315 20.5224 8.71807 19.074 9.38655 17.5978C8.71807 16.1216 8.16101 14.6454 7.71535 13.2527C7.10258 13.4198 6.48981 13.6148 5.93274 13.8376ZM9.49796 31.3016C8.35598 30.6332 7.96603 28.572 8.43954 25.6474C8.5231 25.0625 8.66236 24.4497 8.82948 23.8091C10.2779 24.1433 11.8098 24.3662 13.4253 24.5054C14.3723 25.8424 15.3471 27.0401 16.322 28.1264C14.2609 30.1596 12.1719 31.5523 10.4728 31.5523C10.1107 31.5523 9.77649 31.4688 9.49796 31.3016ZM25.3743 31.3016C26.5163 30.6332 26.9062 28.572 26.4327 25.6474L26.401 25.4802C26.2997 24.946 26.1941 24.389 26.0428 23.8091C24.5944 24.1155 23.0625 24.3662 21.447 24.5054C20.5 25.8424 19.5251 27.0679 18.5503 28.1264C20.6393 30.1875 22.7283 31.5523 24.3995 31.5523C24.7615 31.5523 25.0958 31.4688 25.3743 31.3016ZM28.9395 21.3023C28.3825 21.5251 27.7697 21.7201 27.1569 21.8872C26.7113 20.4946 26.1542 19.0183 25.4857 17.5421C26.1542 16.0659 26.7391 14.6175 27.1569 13.2249C31.0007 14.339 33.3125 16.0102 33.3125 17.57C33.3125 18.8791 31.697 20.2717 28.9395 21.3023ZM20.6114 17.57C20.6114 19.3236 19.1898 20.7452 17.4361 20.7452C15.6825 20.7452 14.2609 19.3236 14.2609 17.57C14.2609 15.8163 15.6825 14.3947 17.4361 14.3947C19.1898 14.3947 20.6114 15.8163 20.6114 17.57Z" fill="#909299"/>
</svg>
