<svg width="83" height="96" viewBox="0 0 83 96" fill="none" xmlns="http://www.w3.org/2000/svg">
<path d="M71.0081 30.6052V65.1736L41.6416 82.5522L41.3761 82.7938V95.7136L41.6416 95.964L83 72.0683V23.8993L82.6093 23.8037L70.9494 30.324L71.0081 30.6052Z" fill="#909299"/>
<path d="M12.1809 65.4567L41.6417 82.5522V95.9639L0 71.9739V23.9937L0.42732 23.9292L12.0535 30.6902L12.1809 31.0774V65.4567Z" fill="#A7A9B0"/>
<path d="M12.1809 31.078L0 23.9943L41.5473 0.00424576L83 23.9L71.0081 30.6058L41.5473 13.7938L12.1809 31.078Z" fill="#BBBDC4"/>
<path d="M41.1363 61.5032L40.8173 61.1776V48.1972L41.1363 48.0324L41.2138 47.7123L52.3393 41.2208L52.6798 41.297V54.6718L41.1363 61.5032Z" fill="#909299"/>
<path d="M29.4001 55.0885V41.201L29.7227 41.1852L41.0399 47.773L41.1362 48.0324V61.5032L29.4001 55.0885Z" fill="#A7A9B0"/>
<path d="M40.9436 34.3693L29.4001 41.201L41.1362 48.0324L52.6797 41.297L40.9436 34.3693Z" fill="#BBBDC4"/>
<path d="M26.7707 69.9707L26.452 69.6451V56.6643L26.7707 56.4999L26.8485 56.1798L37.9738 49.6883L38.3142 49.7645V63.139L26.7707 69.9707Z" fill="#909299"/>
<path d="M15.0349 63.556V49.6682L15.3572 49.6523L26.6744 56.2404L26.7707 56.4999V69.9707L15.0349 63.556Z" fill="#A7A9B0"/>
<path d="M26.5784 42.8368L15.0349 49.6682L26.7707 56.4999L38.3141 49.7645L26.5784 42.8368Z" fill="#BBBDC4"/>
<path d="M56.5275 70.2914L56.2085 69.9658V56.9851L56.5275 56.8206L56.605 56.5006L67.7306 50.009L68.071 50.0852V63.4597L56.5275 70.2914Z" fill="#909299"/>
<path d="M44.7914 63.8768V49.9889L45.114 49.973L56.4312 56.5612L56.5275 56.8206V70.2914L44.7914 63.8768Z" fill="#A7A9B0"/>
<path d="M56.3349 43.1575L44.7914 49.9889L56.5275 56.8206L68.071 50.0852L56.3349 43.1575Z" fill="#BBBDC4"/>
<path d="M42.1621 78.7589L41.8434 78.4333V65.4525L42.1621 65.2881L42.2399 64.9677L53.3655 58.4765L53.7056 58.5527V71.9272L42.1621 78.7589Z" fill="#909299"/>
<path d="M30.4263 72.3442V58.4564L30.7485 58.4405L42.066 65.0283L42.162 65.2881V78.7589L30.4263 72.3442Z" fill="#A7A9B0"/>
<path d="M41.9697 51.6247L30.4263 58.4564L42.162 65.2881L53.7055 58.5527L41.9697 51.6247Z" fill="#BBBDC4"/>
<path d="M41.1363 43.0934L40.8173 42.7674V29.787L41.1363 29.6226L41.2138 29.3022L52.3393 22.811L52.6798 22.8872V36.2616L41.1363 43.0934Z" fill="#909299"/>
<path d="M29.4001 36.6787V22.7909L29.7227 22.775L41.0399 29.3628L41.1362 29.6226V43.0934L29.4001 36.6787Z" fill="#A7A9B0"/>
<path d="M40.9436 15.9592L29.4001 22.7909L41.1362 29.6226L52.6797 22.8872L40.9436 15.9592Z" fill="#BBBDC4"/>
<path d="M26.7707 51.5605L26.452 51.2349V38.2545L26.7707 38.0897L26.8485 37.7696L37.9738 31.2781L38.3142 31.3543V44.7291L26.7707 51.5605Z" fill="#909299"/>
<path d="M15.0349 45.1458V31.2583L15.3572 31.2424L26.6744 37.8303L26.7707 38.0897V51.5605L15.0349 45.1458Z" fill="#A7A9B0"/>
<path d="M26.5784 24.4266L15.0349 31.2583L26.7707 38.0897L38.3141 31.3543L26.5784 24.4266Z" fill="#BBBDC4"/>
<path d="M56.5275 51.8812L56.2085 51.5556V38.5752L56.5275 38.4104L56.605 38.0904L67.7306 31.5988L68.071 31.6751V45.0498L56.5275 51.8812Z" fill="#909299"/>
<path d="M44.7914 45.4666V31.5791L45.114 31.5632L56.4312 38.151L56.5275 38.4105V51.8812L44.7914 45.4666Z" fill="#A7A9B0"/>
<path d="M56.3349 24.7474L44.7914 31.5791L56.5275 38.4105L68.071 31.6751L56.3349 24.7474Z" fill="#BBBDC4"/>
<path d="M42.1621 60.3487L41.8434 60.0231V47.0423L42.1621 46.8779L42.2399 46.5578L53.3655 40.0663L53.7056 40.1425V53.517L42.1621 60.3487Z" fill="#909299"/>
<path d="M30.4263 53.934V40.0462L30.7485 40.0303L42.066 46.6185L42.162 46.8779V60.3487L30.4263 53.934Z" fill="#A7A9B0"/>
<path d="M41.9697 33.2145L30.4263 40.0462L42.162 46.8779L53.7055 40.1425L41.9697 33.2145Z" fill="#BBBDC4"/>
</svg>
