<svg width="20" height="20" viewBox="0 0 20 20" fill="none" xmlns="http://www.w3.org/2000/svg">
<path fill-rule="evenodd" clip-rule="evenodd" d="M10.0001 0C4.47791 0 0 4.59026 0 10.2531C0 14.7832 2.86533 18.6266 6.83867 19.9824C7.33844 20.0773 7.52192 19.76 7.52192 19.4891C7.52192 19.2446 7.51265 18.437 7.50834 17.5802C4.72631 18.2004 4.13927 16.3704 4.13927 16.3704C3.68437 15.1853 3.02894 14.8702 3.02894 14.8702C2.12163 14.2338 3.09733 14.2469 3.09733 14.2469C4.10151 14.319 4.63026 15.3035 4.63026 15.3035C5.52217 16.871 6.96965 16.4178 7.5403 16.1558C7.63006 15.4933 7.88921 15.0406 8.1752 14.7848C5.95405 14.5255 3.61913 13.6463 3.61913 9.71757C3.61913 8.59815 4.00977 7.68349 4.64947 6.96545C4.54564 6.70703 4.20335 5.66435 4.74635 4.25204C4.74635 4.25204 5.58609 3.97647 7.49708 5.30304C8.29476 5.07586 9.15024 4.96193 10.0001 4.95803C10.8499 4.96193 11.7061 5.07586 12.5052 5.30304C14.4139 3.97647 15.2525 4.25204 15.2525 4.25204C15.7968 5.66435 15.4544 6.70703 15.3505 6.96545C15.9917 7.68349 16.3797 8.59815 16.3797 9.71757C16.3797 13.6557 14.0403 14.5228 11.8135 14.7766C12.1722 15.0948 12.4918 15.7188 12.4918 16.6754C12.4918 18.0471 12.4802 19.1513 12.4802 19.4891C12.4802 19.762 12.6602 20.0817 13.1671 19.981C17.1383 18.6237 20 14.7817 20 10.2531C20 4.59026 15.5227 0 10.0001 0Z" fill="#3A36FF"/>
</svg>
