<svg width="21" height="20" viewBox="0 0 21 20" fill="none" xmlns="http://www.w3.org/2000/svg">
<path fill-rule="evenodd" clip-rule="evenodd" d="M20.25 5.222L20.2501 16.04C20.2501 17.1431 19.3388 18.0457 18.2251 18.0457H2.02509C0.91134 18.0457 8.98043e-05 17.1431 8.98043e-05 16.04L0 5.222L9.55531 11.8475L9.67337 11.9179C9.95703 12.0616 10.2931 12.0616 10.5768 11.9179L10.6949 11.8475L20.25 5.222ZM18.2251 2C18.9853 2 19.6511 2.42047 19.9973 3.0382C19.9237 3.05721 19.8515 3.08504 19.7821 3.12188L19.6803 3.18392L10.1251 9.808L0.569869 3.18392L0.462346 3.11885C0.394962 3.08362 0.324935 3.05678 0.253613 3.0381C0.598366 2.42092 1.26451 2 2.02509 2H18.2251Z" fill="#3A36FF"/>
</svg>
