<svg width="20" height="20" viewBox="0 0 20 20" fill="none" xmlns="http://www.w3.org/2000/svg">
<path fill-rule="evenodd" clip-rule="evenodd" d="M19.9994 14.9738V17.9846C20.0017 18.5498 19.7651 19.0898 19.3478 19.4718C18.9305 19.8539 18.3712 20.0427 17.8072 19.9918C14.7128 19.6563 11.7404 18.601 9.1289 16.9108C6.69922 15.3699 4.63927 13.3141 3.09534 10.8892C1.39587 8.27098 0.338248 5.29008 0.00816924 2.18795C-0.0426402 1.62681 0.145204 1.07019 0.525814 0.654067C0.906425 0.237942 1.44475 0.000629267 2.0093 9.86731e-05H5.02608C6.03556 -0.00981707 6.89598 0.728681 7.03727 1.72629C7.1646 2.68982 7.40074 3.63587 7.74118 4.54641C8.01746 5.27992 7.84075 6.10682 7.28867 6.66401L6.01156 7.93859C7.44308 10.4512 9.52758 12.5315 12.0451 13.9602L13.3222 12.6856C13.8805 12.1346 14.7091 11.9583 15.444 12.234C16.3564 12.5738 17.3043 12.8094 18.2698 12.9365C19.2809 13.0789 20.0247 13.955 19.9994 14.9738Z" fill="#3A36FF"/>
</svg>
