<svg width="600" height="24" viewBox="0 0 600 24" fill="none" xmlns="http://www.w3.org/2000/svg">
<rect width="600" height="24" fill="#3C3D40"/>
<path fill-rule="evenodd" clip-rule="evenodd" d="M12 16C14.2091 16 16 14.2091 16 12C16 9.79086 14.2091 8 12 8C9.79086 8 8 9.79086 8 12C8 14.2091 9.79086 16 12 16Z" fill="#606166"/>
<path fill-rule="evenodd" clip-rule="evenodd" d="M26 16C28.2091 16 30 14.2091 30 12C30 9.79086 28.2091 8 26 8C23.7909 8 22 9.79086 22 12C22 14.2091 23.7909 16 26 16Z" fill="#606166"/>
<path fill-rule="evenodd" clip-rule="evenodd" d="M40 16C42.2091 16 44 14.2091 44 12C44 9.79086 42.2091 8 40 8C37.7909 8 36 9.79086 36 12C36 14.2091 37.7909 16 40 16Z" fill="#606166"/>
</svg>
