<svg width="35" height="35" viewBox="0 0 35 35" fill="none" xmlns="http://www.w3.org/2000/svg">
<path fill-rule="evenodd" clip-rule="evenodd" d="M13.9806 3.33333H11.7583V1.38889H13.9806V0H10.0917V4.72222H13.9806V3.33333ZM17.0897 1.38889L18.9806 3.715V4.72222H14.8139V3.33333H16.9619L14.8139 1.21194V0H18.9806V1.38889H17.0897ZM22.2725 1.38889L24.2583 3.715V4.72222H19.8139V3.33333H22.1444L19.8139 1.21194V0H24.2583V1.38889H22.2725ZM5 6.94444L7.24139 32.0814L17.2986 34.8731L27.3839 32.0778L29.6278 6.94444H5ZM24.225 20.9689L23.5722 27.05L23.5747 27.5708L17.3139 29.3194V29.3197L17.3089 29.3239L10.9981 27.5947L10.5711 22.7778H13.6658L13.8853 25.2128L17.3139 26.1278V26.1233L20.7567 25.1525L21.12 21.1111H13.9236L13.8619 20.4569L13.7214 18.8883L13.6478 18.0556H21.3939L21.6756 15H9.8775L9.81556 14.2808L9.675 12.6058L9.60139 11.6667H25.045L24.9708 12.5928L24.225 20.9689Z" fill="#3A36FF"/>
</svg>
