<svg width="35" height="35" viewBox="0 0 35 35" fill="none" xmlns="http://www.w3.org/2000/svg">
<path fill-rule="evenodd" clip-rule="evenodd" d="M0.00833333 16.4831C0.0716551 16.1656 0.128294 15.8462 0.18495 15.5266C0.307242 14.8369 0.429614 14.1467 0.619444 13.4747C2.28611 7.52197 9.11944 5.04697 13.8139 8.73586C16.5639 10.8997 17.2472 13.9497 17.1111 17.3886H1.61111C1.37778 23.5581 5.81944 27.2831 11.4806 25.3831C13.4667 24.7164 14.6361 23.1609 15.2222 21.2164C15.5194 20.2414 16.0111 20.0886 16.9278 20.3664C16.4583 22.7997 15.3944 24.8331 13.1722 26.1053C9.83889 28.0109 5.08056 27.3942 2.57778 24.747C1.1 23.1914 0.472222 21.2553 0.194444 19.1636C0.165493 18.932 0.115083 18.7031 0.0646482 18.474L0.0646412 18.474C0.0424938 18.3734 0.0203417 18.2728 0 18.172C0.00555556 17.609 0.00833333 17.046 0.00833333 16.4831ZM1.63889 16.0692H15.6472C15.5556 11.6081 12.7778 8.43863 8.98056 8.41086C4.81389 8.37752 1.81944 11.472 1.63889 16.0692ZM32.0722 25.6359C32.775 26.6914 33.5583 26.9997 34.825 26.6775C34.1672 25.801 33.5148 24.9296 32.8657 24.0626C31.182 21.8139 29.5205 19.5947 27.8444 17.3914C27.4444 16.8664 27.3722 16.5053 27.8194 15.9497C28.752 14.7924 29.6477 13.6059 30.5431 12.4198C30.8532 12.009 31.1634 11.5982 31.475 11.1886C32.1131 10.349 32.7484 9.50516 33.3899 8.6531C33.6504 8.30713 33.9119 7.9598 34.175 7.61086C32.9722 7.26086 32.2528 7.62197 31.5833 8.57197C30.3784 10.2668 29.1227 11.9153 27.8425 13.596C27.3518 14.2401 26.8575 14.8889 26.3611 15.547C25.84 14.8494 25.3184 14.1631 24.8007 13.4818C23.5494 11.8352 22.3205 10.2182 21.175 8.54419C20.4417 7.47197 19.6139 7.35252 18.4167 7.58586L25.3778 16.6497L17.9 26.6859C19.1444 27.022 19.8444 26.6081 20.5111 25.6581C21.7809 23.847 23.1075 22.0836 24.453 20.2951C25.0825 19.4583 25.7161 18.6161 26.35 17.7609C26.4136 17.8446 26.4744 17.9244 26.5328 18.0011C26.7322 18.2629 26.9047 18.4894 27.0722 18.7192C27.5321 19.3478 27.9966 19.9733 28.461 20.5988C29.6937 22.259 30.9262 23.9188 32.0722 25.6359Z" fill="#3A36FF"/>
</svg>
