<svg width="35" height="35" viewBox="0 0 35 35" fill="none" xmlns="http://www.w3.org/2000/svg">
<path fill-rule="evenodd" clip-rule="evenodd" d="M17.4984 0C7.83603 0 0 7.83496 0 17.5005C0 25.2324 5.01381 31.791 11.9678 34.1051C12.8434 34.2662 13.1625 33.7259 13.1625 33.2618C13.1625 32.8471 13.1474 31.7459 13.1388 30.2859C8.27113 31.343 7.24408 27.9396 7.24408 27.9396C6.44802 25.9178 5.30065 25.3795 5.30065 25.3795C3.71175 24.2945 5.42098 24.316 5.42098 24.316C7.17748 24.4395 8.10138 26.1197 8.10138 26.1197C9.66236 28.7937 12.1977 28.0213 13.1947 27.5733C13.3537 26.4431 13.806 25.6718 14.3055 25.2345C10.4197 24.793 6.33414 23.2911 6.33414 16.5852C6.33414 14.6751 7.01633 13.112 8.13576 11.8894C7.95528 11.4468 7.35474 9.66666 8.30765 7.25805C8.30765 7.25805 9.77624 6.7875 13.1195 9.05215C14.515 8.66325 16.0126 8.46987 17.5005 8.46235C18.9874 8.46987 20.4839 8.66325 21.8816 9.05215C25.2227 6.7875 26.6891 7.25805 26.6891 7.25805C27.6442 9.66666 27.0436 11.4468 26.8642 11.8894C27.9858 13.112 28.6626 14.6751 28.6626 16.5852C28.6626 23.3083 24.5706 24.7876 20.673 25.2205C21.3004 25.7609 21.8601 26.8288 21.8601 28.4617C21.8601 30.8005 21.8386 32.6881 21.8386 33.2618C21.8386 33.7302 22.1545 34.2748 23.0418 34.104C29.9905 31.7846 35 25.2302 35 17.5005C35 7.83496 27.164 0 17.4984 0Z" fill="#3A36FF"/>
</svg>
