<svg width="35" height="35" viewBox="0 0 35 35" fill="none" xmlns="http://www.w3.org/2000/svg">
<path fill-rule="evenodd" clip-rule="evenodd" d="M5 7.10592L7.26483 32.2885L17.4279 35L27.6192 32.3397L29.8865 7.10592H5ZM25.1757 12.839L25.0337 14.4729L24.9712 15.2276H13.0494L13.3343 18.5883H24.6878L24.6119 19.2131L23.8796 27.3093L23.8258 27.7826L17.4433 29.5005V29.4991L17.4357 29.5025L11.0568 27.8456L10.6238 23.0692H13.7515L13.9731 25.4385L17.4416 26.3176L17.4433 26.2521V26.2555L20.9194 25.5136L21.2823 21.6689H10.4847L9.71898 13.0331L9.64421 12.147H25.2502L25.1757 12.839ZM7.34885 0H8.92334V1.556H10.364V0H11.9387V4.71114H10.364V3.13357H8.92362V4.71114H7.34885V0ZM14.0092 1.56245H12.6229V0H16.9708V1.56245H15.584V4.71114H14.0092V1.56245ZM17.6609 0H19.3026L20.3127 1.65542L21.3218 0H22.9643V4.71114H21.3957V2.37601L20.3127 4.05104H20.2853L19.2015 2.37601V4.71114H17.6606V0H17.6609ZM23.7482 0H25.3233V3.15402H27.5377V4.71142H23.7482V0Z" fill="#3A36FF"/>
</svg>
