<svg width="35" height="35" viewBox="0 0 35 35" fill="none" xmlns="http://www.w3.org/2000/svg">
<path fill-rule="evenodd" clip-rule="evenodd" d="M0 0V35H35V0H0ZM18.5133 29.8236C17.9967 30.8734 17.0106 31.563 15.8679 31.8959C14.112 32.2991 12.4326 32.0692 11.1832 31.3194C10.3471 30.8064 9.69416 30.0168 9.25092 29.1071L11.9165 27.4747C11.9398 27.4845 12.0098 27.6111 12.1033 27.7746C12.4432 28.3441 12.7364 28.7473 13.3126 29.0304C13.8788 29.2236 15.1217 29.3471 15.6016 28.3508C15.8948 27.844 15.8015 26.215 15.8015 24.4126C15.8012 21.5804 15.8144 18.76 15.8144 15.96H19.0929C19.0929 19.04 19.1097 21.957 19.0929 24.9626C19.0999 26.805 19.2598 28.4474 18.5133 29.8236ZM32.114 28.8974C30.9744 32.7956 24.6207 32.9221 22.0816 30.3467C21.5452 29.7405 21.2089 29.4238 20.8888 28.7241C22.2382 27.9479 22.2382 27.9479 23.5511 27.1883C24.2642 28.2845 24.9236 28.8873 26.11 29.134C27.7194 29.3306 29.3387 28.7776 28.9755 27.0682C28.6023 25.6721 25.6799 25.3324 23.6911 23.8395C21.672 22.4834 21.1988 19.1884 22.8581 17.3057C23.4111 16.6093 24.3541 16.0896 25.3436 15.8399L26.3763 15.7063C28.359 15.6663 29.5982 16.1899 30.508 17.2057C30.7611 17.4622 30.9677 17.7388 31.3541 18.3383C30.298 19.0114 30.3013 19.005 28.7885 19.9844C28.4654 19.2884 27.9292 18.8516 27.3624 18.6617C26.4827 18.3952 25.3733 18.685 25.1432 19.6146C25.0634 19.901 25.0799 20.1676 25.2067 20.6408C25.5632 21.4536 26.7593 21.807 27.8323 22.3C30.921 23.5528 31.964 24.8959 32.2204 26.4947C32.4674 27.8712 32.1608 28.7641 32.114 28.8974Z" fill="#3A36FF"/>
</svg>
