<svg width="35" height="35" viewBox="0 0 35 35" fill="none" xmlns="http://www.w3.org/2000/svg">
<path fill-rule="evenodd" clip-rule="evenodd" d="M17.5324 29.3886C17.3041 29.337 17.0821 29.2656 16.8592 29.1997L16.6912 29.1487C16.4734 29.0819 16.2574 29.0116 16.0426 28.9377L15.9535 28.9054C15.761 28.8378 15.5707 28.7664 15.3815 28.6933L15.2209 28.6302C15.0135 28.5483 14.8072 28.4627 14.6037 28.3734L14.4804 28.3188C14.3053 28.2393 14.1321 28.1594 13.9594 28.0764L13.8088 28.0041C13.6734 27.9382 13.5394 27.8681 13.4059 27.7992C13.3165 27.752 13.2255 27.7076 13.137 27.6585C12.9737 27.5711 12.8135 27.4803 12.654 27.3877L12.491 27.2967C12.279 27.172 12.0693 27.0426 11.8622 26.9114L11.6926 26.7983C11.542 26.7015 11.3925 26.6027 11.245 26.5007L11.1007 26.3995C10.9584 26.2988 10.8178 26.197 10.6776 26.0936L10.4904 25.9518C10.3624 25.8539 10.2347 25.7552 10.1087 25.6534L9.9385 25.5169C9.77826 25.3848 9.61967 25.2524 9.46301 25.1162L9.41116 25.0723C9.24182 24.9237 9.07551 24.7711 8.91141 24.6181L8.77075 24.4826C8.64912 24.3668 8.52942 24.2501 8.41166 24.1304L8.271 23.9901C8.12124 23.8367 7.97423 23.6814 7.82999 23.524L7.80848 23.5008C7.65596 23.3342 7.5073 23.164 7.3614 22.9922L7.24446 22.8532C7.13552 22.7222 7.02796 22.5895 6.9226 22.4555L6.80483 22.3088C6.67824 22.1444 6.5544 21.9808 6.43333 21.814C3.08233 17.2428 1.87817 10.9385 4.55677 5.76118L2.18183 8.77322C-0.859994 13.145 -0.481317 18.8334 1.84232 23.479C1.89748 23.5904 1.95567 23.6999 2.01249 23.8094L2.12143 24.0187L2.189 24.1393L2.31008 24.3561C2.38234 24.4832 2.45625 24.6098 2.5321 24.7364L2.65842 24.9449C2.74226 25.0803 2.82804 25.2141 2.91602 25.3476L3.02579 25.5169C3.14659 25.6976 3.2707 25.8779 3.39867 26.055L3.40943 26.0688L3.47231 26.1537C3.58263 26.3063 3.69681 26.4568 3.8121 26.6058L3.9398 26.7685C4.04267 26.8978 4.1472 27.0264 4.25393 27.1543L4.37391 27.2978C4.51677 27.466 4.66267 27.6334 4.81133 27.7975L4.82016 27.8066L4.83726 27.8254C4.98233 27.984 5.13126 28.139 5.28185 28.294L5.42444 28.4377C5.5411 28.5551 5.6597 28.6707 5.7794 28.7857L5.92447 28.9236C6.08443 29.0745 6.24606 29.2223 6.41098 29.3668L6.41871 29.3729L6.50338 29.4452C6.64845 29.5709 6.79628 29.6959 6.94549 29.8183L7.12862 29.9642C7.25025 30.0619 7.37326 30.1578 7.4971 30.2522L7.69402 30.4019C7.83054 30.5026 7.96844 30.6016 8.10745 30.6984L8.25803 30.8051L8.2994 30.8347C8.43124 30.9254 8.5661 31.0128 8.70097 31.1002L8.87473 31.2161C9.0813 31.3468 9.29119 31.4762 9.50301 31.6011L9.67676 31.699C9.83259 31.7889 9.98952 31.8772 10.1487 31.9635C10.2347 32.0098 10.323 32.0537 10.4096 32.0981C10.5218 32.1568 10.6332 32.2164 10.7474 32.2735L10.8255 32.3113L10.9637 32.378C11.1404 32.4624 11.3186 32.5455 11.4987 32.6254L11.6118 32.6762C11.8181 32.7664 12.026 32.853 12.2359 32.9357L12.3879 32.9956C12.5821 33.0703 12.779 33.1442 12.9767 33.2137L13.0507 33.2394C13.2674 33.3152 13.4867 33.3855 13.7073 33.4542L13.8659 33.5017C14.0904 33.5692 14.3122 33.65 14.5438 33.6928C29.2549 36.3755 33.5282 24.8525 33.5282 24.8525C29.9389 29.5285 23.5684 30.7618 17.5324 29.3886ZM12.2332 17.4654C12.5628 17.9379 12.9282 18.4999 13.3653 18.8794C13.5239 19.054 13.6897 19.2245 13.859 19.3919L13.9892 19.5201C14.1536 19.6795 14.3207 19.8362 14.4934 19.9884L14.5138 20.0061L14.5187 20.0111C14.7099 20.1787 14.9071 20.3395 15.1076 20.4984L15.2411 20.6027C15.4421 20.7568 15.6471 20.908 15.8569 21.0525L15.8749 21.066C15.9675 21.13 16.0621 21.1896 16.1562 21.2513L16.2891 21.3393C16.4392 21.4356 16.5914 21.5294 16.7459 21.6193L16.8104 21.6568C16.9436 21.7334 17.0787 21.809 17.2139 21.8824L17.3576 21.9571C17.4511 22.0059 17.5446 22.0559 17.64 22.1033L17.6828 22.1226C17.8764 22.218 18.0719 22.3101 18.2719 22.397L18.402 22.4505C18.5615 22.5184 18.7228 22.5846 18.8847 22.6464L19.0916 22.7222C19.2386 22.7768 19.3861 22.8265 19.535 22.8764L19.7356 22.9406C19.9471 23.0063 20.1562 23.0893 20.3765 23.126C31.7349 25.0078 34.3569 16.2624 34.3569 16.2624C31.9933 19.6666 27.4155 21.2911 22.5308 20.0229C22.3138 19.9658 22.1 19.904 21.8874 19.837L21.6943 19.7744C21.5432 19.7256 21.3931 19.6738 21.2442 19.6194L21.0412 19.5438C20.8782 19.481 20.7169 19.4164 20.5569 19.3486L20.4264 19.2934C20.2259 19.2063 20.0285 19.1142 19.834 19.0179C19.7336 18.9691 19.6352 18.9175 19.5367 18.8668L19.3652 18.7785C19.2388 18.7101 19.1131 18.6389 18.9892 18.5661L18.8993 18.5151C18.7454 18.4255 18.5943 18.3328 18.4442 18.2371L18.3069 18.1455C18.2082 18.0815 18.1091 18.0162 18.0121 17.9505C17.8027 17.806 17.5992 17.6549 17.3981 17.5015L17.2599 17.3926C15.1219 15.7047 13.4271 13.3973 12.6212 10.7813C11.7767 8.06854 11.959 5.02313 13.4219 2.55139L11.6245 5.08877C9.4244 8.25443 9.5441 12.4924 11.2601 15.8404C11.5478 16.4025 11.8713 16.9472 12.2332 17.4654ZM24.2049 13.5493C24.2984 13.5838 24.3919 13.6147 24.4868 13.6469L24.6112 13.6864C24.7447 13.7283 24.8776 13.7771 25.0158 13.8033C31.2873 15.0152 32.9887 10.585 33.4413 9.93269C31.9511 12.0782 29.4471 12.5931 26.3744 11.8473C26.1317 11.7886 25.8647 11.7009 25.6308 11.6178C25.3308 11.5108 25.0351 11.3889 24.748 11.2513C24.2022 10.989 23.6823 10.671 23.2002 10.307C20.4507 8.22051 18.7427 4.24095 20.5368 1L19.5659 2.33792C18.2691 4.24647 18.1417 6.61672 19.0416 8.7244C19.9907 10.9617 21.9354 12.7166 24.2049 13.5493Z" fill="#3A36FF"/>
</svg>
