<svg width="35" height="35" viewBox="0 0 35 35" fill="none" xmlns="http://www.w3.org/2000/svg">
<path fill-rule="evenodd" clip-rule="evenodd" d="M31.4568 7.68652L18.7928 0.34082C17.995 -0.113607 16.9499 -0.113607 16.1457 0.34082L3.38279 7.68652C2.55971 8.16016 2 9.05037 2 10.0025V24.6744C2 25.6266 2.57148 26.5171 3.39484 26.9933L6.75971 28.912C8.37402 29.7073 8.82127 29.7073 9.5557 29.7073C11.9466 29.7073 13.1882 28.2616 13.1882 25.7402V11.2554C13.1885 11.0508 13.3162 10.7464 13.1151 10.7464H11.5022C11.298 10.7464 10.8934 11.0508 10.8934 11.2551V25.7399C10.8934 26.8576 9.85607 27.9699 7.96664 27.0252L4.48902 25.0132C4.36795 24.9473 4.29508 24.8144 4.29508 24.6744V10.0025C4.29508 9.86426 4.42791 9.72541 4.5507 9.65455L17.2821 2.32148C17.4011 2.25406 17.5695 2.25406 17.688 2.32148L30.3004 9.65283C30.4211 9.72541 30.4019 9.85996 30.4019 10.0025V24.6744C30.4019 24.8144 30.4283 24.9507 30.3093 25.0181L17.6482 32.3555C17.5397 32.4206 17.3986 32.4206 17.2795 32.3555L14.0328 30.4193C13.935 30.3625 13.8171 30.3421 13.723 30.3946C12.8207 30.9061 12.6532 30.9741 11.8069 31.2676C11.5983 31.3402 11.2908 31.4661 11.9239 31.821L16.1693 34.3324C16.5755 34.5677 17.0377 34.6899 17.5024 34.6899C17.9735 34.6899 18.4345 34.5677 18.841 34.3324L31.4571 26.9933C32.2807 26.5136 32.697 25.6266 32.697 24.6744V10.0025C32.6967 9.05037 32.2805 8.16246 31.4568 7.68652ZM21.4299 22.3495C18.0656 22.3495 17.3248 21.4214 17.0778 19.7486C17.0486 19.5684 16.8959 19.353 16.7123 19.353H15.0685C14.8651 19.353 14.7013 19.5997 14.7013 19.8023C14.7013 21.9441 15.866 24.5393 21.4299 24.5393C25.4572 24.5393 27.7666 22.9743 27.7666 20.2048C27.7666 17.4587 25.9113 16.738 22.0054 16.2211C18.0573 15.6992 17.6562 15.4356 17.6562 14.5107C17.6562 13.7481 17.9959 12.7311 20.9192 12.7311C23.531 12.7311 24.4938 13.2917 24.89 15.0523C24.9241 15.2178 25.0753 15.3366 25.246 15.3366H26.8968C26.9983 15.3366 27.095 15.2956 27.1661 15.223C27.2353 15.145 27.2714 15.0471 27.2625 14.9421C27.0064 11.91 24.9924 10.4971 20.9189 10.4971C17.295 10.4971 15.1336 12.0274 15.1336 14.5924C15.1336 17.3746 17.2844 18.1435 20.7629 18.4875C24.9241 18.8954 25.2477 19.5036 25.2477 20.3221C25.2477 21.7439 24.1065 22.3495 21.4299 22.3495Z" fill="#3A36FF"/>
</svg>
