<svg width="37" height="35" viewBox="0 0 37 35" fill="none" xmlns="http://www.w3.org/2000/svg">
<path d="M30.2675 14.3522C30.2129 13.151 30.3221 12.1136 29.8307 11.1854C28.5203 8.94675 25.2443 7.63635 18.6377 7.63635V7.69095V7.63635C12.1949 7.63635 8.64592 8.94675 7.39012 11.1854C6.84412 12.1136 6.95332 13.151 6.84412 14.3522C6.78952 15.2804 6.35272 16.3178 6.51652 17.4098C6.73492 18.8294 6.84412 20.249 7.06252 21.5594C7.22632 22.6514 8.64592 23.525 8.80972 24.5624C9.19192 27.347 11.9765 28.6028 18.6377 28.6028C25.3535 28.6028 27.9743 27.347 28.3565 24.5624C28.5203 23.525 29.8853 22.6514 30.0491 21.5594C30.2675 20.249 30.3767 18.8294 30.5951 17.4098C30.7589 16.3178 30.3221 15.2804 30.2675 14.3522Z" fill="#413DFF"/>
<path d="M26.1182 18.7202C27.445 18.7202 28.5206 17.6446 28.5206 16.3178C28.5206 14.991 27.445 13.9154 26.1182 13.9154C24.7914 13.9154 23.7158 14.991 23.7158 16.3178C23.7158 17.6446 24.7914 18.7202 26.1182 18.7202Z" fill="#171723"/>
<path d="M25.5176 15.8263C25.8493 15.8263 26.1182 15.5574 26.1182 15.2257C26.1182 14.894 25.8493 14.6251 25.5176 14.6251C25.1859 14.6251 24.917 14.894 24.917 15.2257C24.917 15.5574 25.1859 15.8263 25.5176 15.8263Z" fill="#413DFF"/>
<path d="M22.4598 16.2085C23.7156 17.0275 24.8076 18.0103 25.7904 19.1569C26.9916 20.6311 26.937 20.9041 26.937 20.9041L26.118 21.2317C26.118 21.2317 24.9168 18.9931 23.4426 18.1195C21.9684 17.2459 21.75 16.5361 21.75 16.5361L22.4598 16.2085Z" fill="white" fill-opacity="0.01"/>
<path d="M24.9714 19.976C23.4426 18.0104 21.0948 16.8638 18.6378 16.8638H18.5832C16.1262 16.8638 13.7784 18.0104 12.2496 19.976C10.8846 21.614 10.9938 22.3238 10.9938 23.9072C10.9938 29.6402 13.014 27.9476 14.3244 28.6574C15.6348 29.3672 17.109 29.0396 18.5832 29.0396C20.0574 29.0396 21.477 29.3126 22.842 28.6028C24.207 27.893 26.2272 29.6402 26.2272 23.9072C26.2818 22.2692 26.3364 21.614 24.9714 19.976Z" fill="#171723"/>
<path d="M18.6925 18.2287C18.6925 18.1195 19.6207 18.1195 20.1121 17.7373C20.1121 17.7373 19.0747 18.0649 18.8563 17.9557C18.6379 17.8465 18.5833 17.5189 18.5833 17.5189C18.5833 17.5189 18.5287 17.8465 18.3103 17.9557C17.8735 17.9557 17.3821 17.9011 16.9453 17.7373C17.4913 17.8465 17.9827 18.0103 18.4741 18.2287C18.4741 18.3379 18.4741 18.5563 18.4741 18.7747C18.4741 19.5937 18.4741 20.4673 18.5833 21.2863C18.7471 21.5593 18.6925 19.4845 18.6925 18.7747C18.6925 18.6109 18.6925 18.3925 18.6925 18.2287Z" fill="#413DFF"/>
<path d="M18.6377 21.4502C19.3475 21.4502 21.6407 23.0336 21.6953 24.9992C21.6953 24.9446 21.6953 24.9446 21.6953 24.89C21.6953 22.8698 19.8389 21.2318 18.6377 21.2318C17.4365 21.2318 15.5801 22.8698 15.5801 24.89C15.5801 24.9446 15.5801 24.9446 15.5801 24.9992C15.6347 22.979 17.9279 21.4502 18.6377 21.4502Z" fill="#413DFF"/>
<path d="M11.1031 18.7202C12.4299 18.7202 13.5055 17.6446 13.5055 16.3178C13.5055 14.991 12.4299 13.9154 11.1031 13.9154C9.77627 13.9154 8.70068 14.991 8.70068 16.3178C8.70068 17.6446 9.77627 18.7202 11.1031 18.7202Z" fill="#171723"/>
<path d="M11.7036 15.8263C12.0353 15.8263 12.3042 15.5574 12.3042 15.2257C12.3042 14.894 12.0353 14.6251 11.7036 14.6251C11.3719 14.6251 11.103 14.894 11.103 15.2257C11.103 15.5574 11.3719 15.8263 11.7036 15.8263Z" fill="#413DFF"/>
<path d="M14.5973 16.2085C13.3415 17.0275 12.2495 18.0103 11.2667 19.1569C10.1201 20.6311 10.1201 20.9041 10.1201 20.9041L10.9391 21.2863C10.9391 21.2863 12.1403 19.0477 13.6145 18.1741C15.0887 17.3005 15.3071 16.5907 15.3071 16.5907L14.5973 16.2085Z" fill="white" fill-opacity="0.01"/>
<path d="M25.3536 8.34617C25.3536 8.34617 28.5204 10.967 29.4486 14.0246C30.3768 17.0822 29.9946 20.795 30.7044 21.2864C31.6872 21.9416 32.8884 18.065 33.2706 17.6282C33.8712 16.973 35.8914 15.2804 36.0006 15.0074C36.1098 14.7344 31.9056 10.148 30.0492 9.27437C27.8652 8.18237 25.1352 8.12777 25.3536 8.34617Z" fill="#171723" stroke="#413DFF"/>
<path d="M11.5945 8.34617C11.5945 8.34617 8.42771 10.967 7.55411 14.0246C6.68051 17.0822 7.00811 20.795 6.29831 21.2864C5.26091 21.9416 4.11431 18.065 3.73211 17.6282C3.13151 16.973 1.11131 15.2804 1.00211 15.0074C0.892914 14.7344 5.04251 10.148 6.89891 9.27437C9.08291 8.18237 11.8129 8.12777 11.5945 8.34617Z" fill="#171723" stroke="#413DFF"/>
<path d="M15.7985 19.9213C15.9191 19.9213 16.0169 19.8235 16.0169 19.7029C16.0169 19.5823 15.9191 19.4845 15.7985 19.4845C15.6779 19.4845 15.5801 19.5823 15.5801 19.7029C15.5801 19.8235 15.6779 19.9213 15.7985 19.9213Z" fill="#413DFF"/>
<path d="M14.5431 21.2317C14.6637 21.2317 14.7615 21.1339 14.7615 21.0133C14.7615 20.8927 14.6637 20.7949 14.5431 20.7949C14.4225 20.7949 14.3247 20.8927 14.3247 21.0133C14.3247 21.1339 14.4225 21.2317 14.5431 21.2317Z" fill="#413DFF"/>
<path d="M14.1608 19.9213C14.2814 19.9213 14.3792 19.8235 14.3792 19.7029C14.3792 19.5823 14.2814 19.4845 14.1608 19.4845C14.0402 19.4845 13.9424 19.5823 13.9424 19.7029C13.9424 19.8235 14.0402 19.9213 14.1608 19.9213Z" fill="#413DFF"/>
<path d="M21.1496 19.9213C21.2702 19.9213 21.368 19.8235 21.368 19.7029C21.368 19.5823 21.2702 19.4845 21.1496 19.4845C21.0289 19.4845 20.9312 19.5823 20.9312 19.7029C20.9312 19.8235 21.0289 19.9213 21.1496 19.9213Z" fill="#413DFF"/>
<path d="M22.4054 21.2317C22.526 21.2317 22.6238 21.1339 22.6238 21.0133C22.6238 20.8927 22.526 20.7949 22.4054 20.7949C22.2848 20.7949 22.187 20.8927 22.187 21.0133C22.187 21.1339 22.2848 21.2317 22.4054 21.2317Z" fill="#413DFF"/>
<path d="M22.7877 19.9213C22.9084 19.9213 23.0061 19.8235 23.0061 19.7029C23.0061 19.5823 22.9084 19.4845 22.7877 19.4845C22.6671 19.4845 22.5693 19.5823 22.5693 19.7029C22.5693 19.8235 22.6671 19.9213 22.7877 19.9213Z" fill="#413DFF"/>
<path d="M16.3995 17.6281C16.1265 16.9729 17.1093 15.9901 18.6381 15.9901C20.1669 15.9901 21.2043 17.0275 20.8767 17.6281C20.5491 18.2287 19.6209 18.5017 18.6381 18.5017C17.6553 18.5017 16.6725 18.2833 16.3995 17.6281Z" fill="#171723"/>
<path d="M19.2405 17.6728C19.3573 17.6426 19.4032 17.4289 19.343 17.1953C19.2827 16.9617 19.1392 16.7967 19.0224 16.8269C18.9056 16.857 18.8598 17.0708 18.92 17.3043C18.9802 17.5379 19.1237 17.7029 19.2405 17.6728Z" fill="#413DFF"/>
<path d="M18.1883 17.2794C18.2597 17.049 18.2243 16.8333 18.109 16.7975C17.9938 16.7618 17.8425 16.9196 17.7711 17.15C17.6996 17.3804 17.7351 17.5962 17.8503 17.6319C17.9655 17.6676 18.1168 17.5098 18.1883 17.2794Z" fill="#413DFF"/>
</svg>
