<svg width="98" height="113" viewBox="0 0 98 113" fill="none" xmlns="http://www.w3.org/2000/svg">
<path d="M83.8408 36.0249V76.7148L49.1671 97.1708L48.8536 97.4552V112.663L49.1671 112.958L97.9999 84.8304V28.1315L97.5386 28.0188L83.7715 35.6939L83.8408 36.0249Z" fill="#141279"/>
<path d="M14.3823 77.048L49.1673 97.1708V112.958L0 84.7192V28.2426L0.504547 28.1665L14.2318 36.1248L14.3823 36.5807V77.048Z" fill="#2724BA"/>
<path d="M14.3823 36.5823L0 28.2442L49.0558 0.00587463L98 28.1332L83.8409 36.0265L49.0558 16.2373L14.3823 36.5823Z" fill="#3A36FF"/>
<path d="M48.5706 72.3944L48.194 72.0111V56.7321L48.5706 56.5381L48.6621 56.1613L61.7983 48.5203L62.2003 48.61V64.3533L48.5706 72.3944Z" fill="#141279"/>
<path d="M34.7134 64.8438V48.497L35.0943 48.4784L48.4568 56.2328L48.5705 56.5381V72.3944L34.7134 64.8438Z" fill="#2724BA"/>
<path d="M48.3431 40.4555L34.7134 48.497L48.5705 56.5381L62.2001 48.61L48.3431 40.4555Z" fill="#3A36FF"/>
<path d="M31.6088 82.3614L31.2325 81.9781V66.6986L31.6088 66.5051L31.7007 66.1283L44.8366 58.4873L45.2385 58.577V74.3199L31.6088 82.3614Z" fill="#141279"/>
<path d="M17.7521 74.8107V58.4636L18.1326 58.4449L31.4951 66.1996L31.6088 66.5051V82.3613L17.7521 74.8107Z" fill="#2724BA"/>
<path d="M31.3817 50.4225L17.7521 58.4636L31.6088 66.5051L45.2384 58.577L31.3817 50.4225Z" fill="#3A36FF"/>
<path d="M66.7434 82.7388L66.3667 82.3556V67.0761L66.7434 66.8826L66.8349 66.5058L79.9711 58.8648L80.373 58.9545V74.6974L66.7434 82.7388Z" fill="#141279"/>
<path d="M52.8862 75.1882V58.8411L53.2671 58.8224L66.6296 66.5772L66.7433 66.8826V82.7388L52.8862 75.1882Z" fill="#2724BA"/>
<path d="M66.5159 50.8L52.8862 58.8411L66.7433 66.8826L80.373 58.9545L66.5159 50.8Z" fill="#3A36FF"/>
<path d="M49.7817 92.7058L49.4054 92.3225V77.043L49.7817 76.8495L49.8736 76.4724L63.0098 68.8317L63.4114 68.9214V84.6643L49.7817 92.7058Z" fill="#141279"/>
<path d="M35.925 85.1552V68.8081L36.3055 68.7893L49.6683 76.5437L49.7817 76.8495V92.7058L35.925 85.1552Z" fill="#2724BA"/>
<path d="M49.5546 60.7666L35.925 68.8081L49.7817 76.8495L63.4113 68.9214L49.5546 60.7666Z" fill="#3A36FF"/>
<path d="M48.5706 50.7245L48.194 50.3408V35.0618L48.5706 34.8683L48.6621 34.4911L61.7983 26.8504L62.2003 26.9401V42.6829L48.5706 50.7245Z" fill="#141279"/>
<path d="M34.7134 43.1739V26.8268L35.0943 26.8081L48.4568 34.5625L48.5705 34.8683V50.7244L34.7134 43.1739Z" fill="#2724BA"/>
<path d="M48.3431 18.7853L34.7134 26.8268L48.5705 34.8683L62.2001 26.9401L48.3431 18.7853Z" fill="#3A36FF"/>
<path d="M31.6088 60.691L31.2325 60.3077V45.0286L31.6088 44.8347L31.7007 44.458L44.8366 36.8169L45.2385 36.9066V52.6499L31.6088 60.691Z" fill="#141279"/>
<path d="M17.7521 53.1404V36.7936L18.1326 36.7749L31.4951 44.5294L31.6088 44.8348V60.691L17.7521 53.1404Z" fill="#2724BA"/>
<path d="M31.3817 28.7521L17.7521 36.7936L31.6088 44.8347L45.2384 36.9066L31.3817 28.7521Z" fill="#3A36FF"/>
<path d="M66.7434 61.0685L66.3667 60.6852V45.4062L66.7434 45.2122L66.8349 44.8356L79.9711 37.1944L80.373 37.2842V53.0274L66.7434 61.0685Z" fill="#141279"/>
<path d="M52.8862 53.518V37.1712L53.2671 37.1525L66.6296 44.9069L66.7433 45.2122V61.0685L52.8862 53.518Z" fill="#2724BA"/>
<path d="M66.5159 29.1298L52.8862 37.1712L66.7433 45.2124L80.373 37.2842L66.5159 29.1298Z" fill="#3A36FF"/>
<path d="M49.7817 71.0355L49.4054 70.6522V55.3727L49.7817 55.1792L49.8736 54.8024L63.0098 47.1614L63.4114 47.2511V62.994L49.7817 71.0355Z" fill="#141279"/>
<path d="M35.925 63.4849V47.1377L36.3055 47.119L49.6683 54.8739L49.7817 55.1792V71.0355L35.925 63.4849Z" fill="#2724BA"/>
<path d="M49.5546 39.0962L35.925 47.1377L49.7817 55.1792L63.4113 47.2511L49.5546 39.0962Z" fill="#3A36FF"/>
</svg>
