<svg width="35" height="35" viewBox="0 0 35 35" fill="none" xmlns="http://www.w3.org/2000/svg">
<path fill-rule="evenodd" clip-rule="evenodd" d="M8 17.5C8 18.8807 6.88071 20 5.5 20C4.11929 20 3 18.8807 3 17.5C3 16.1193 4.11929 15 5.5 15C6.88071 15 8 16.1193 8 17.5ZM17.5 20C18.8807 20 20 18.8807 20 17.5C20 16.1193 18.8807 15 17.5 15C16.1193 15 15 16.1193 15 17.5C15 18.8807 16.1193 20 17.5 20ZM29.5 20C30.8807 20 32 18.8807 32 17.5C32 16.1193 30.8807 15 29.5 15C28.1193 15 27 16.1193 27 17.5C27 18.8807 28.1193 20 29.5 20Z" fill="#3A36FF"/>
</svg>
